<svg width="13" height="12" viewBox="0 0 13 12" fill="none" xmlns="http://www.w3.org/2000/svg">
<path fill-rule="evenodd" clip-rule="evenodd" d="M6.60727 0.306027C6.87045 0.569207 6.87045 0.995905 6.60727 1.25908L2.23467 5.63168C1.95902 5.90733 1.97405 6.35867 2.26743 6.61538L6.57451 10.3841C6.85462 10.6292 6.883 11.0549 6.63791 11.335C6.39282 11.6151 5.96707 11.6435 5.68696 11.3984L1.37988 7.62972C0.499736 6.8596 0.45465 5.50559 1.28161 4.67862L5.65421 0.306027C5.91739 0.0428477 6.34409 0.0428477 6.60727 0.306027Z" fill="#C4C4C4"/>
<path fill-rule="evenodd" clip-rule="evenodd" d="M0.739746 6.17391C0.739746 5.80172 1.04147 5.5 1.41366 5.5H11.5224C11.8945 5.5 12.1963 5.80172 12.1963 6.17391C12.1963 6.54611 11.8945 6.84783 11.5224 6.84783H1.41366C1.04147 6.84783 0.739746 6.54611 0.739746 6.17391Z" fill="#C4C4C4"/>
</svg>
