<svg width="17" height="17" viewBox="0 0 17 17" fill="none" xmlns="http://www.w3.org/2000/svg">
<path fill-rule="evenodd" clip-rule="evenodd" d="M16.5021 2.90208C17.166 2.23819 17.166 1.16181 16.5021 0.497918C15.8382 -0.165973 14.7618 -0.165973 14.0979 0.497918L8.5 6.09584L2.90208 0.497918C2.23819 -0.165973 1.16181 -0.165973 0.497919 0.497918C-0.165974 1.16181 -0.165974 2.23819 0.497919 2.90208L6.09584 8.5L0.497919 14.0979C-0.165974 14.7618 -0.165974 15.8382 0.497919 16.5021C1.16181 17.166 2.23819 17.166 2.90208 16.5021L8.5 10.9042L14.0979 16.5021C14.7618 17.166 15.8382 17.166 16.5021 16.5021C17.166 15.8382 17.166 14.7618 16.5021 14.0979L10.9042 8.5L16.5021 2.90208Z" fill="#F37671"/>
</svg>
