<svg width="21" height="22" viewBox="0 0 21 22" fill="none" xmlns="http://www.w3.org/2000/svg">
<path d="M10.5118 0C11.335 0.00897238 12.1548 0.104304 12.959 0.283751C13.1301 0.32194 13.2849 0.41262 13.402 0.543121C13.519 0.673622 13.5923 0.837423 13.6117 1.01164L13.8024 2.72424C13.8293 2.96569 13.9125 3.19745 14.0454 3.40087C14.1782 3.6043 14.3569 3.7737 14.5671 3.89546C14.7774 4.01721 15.0133 4.08792 15.2558 4.10189C15.4984 4.11586 15.7408 4.0727 15.9636 3.97588L17.5338 3.28613C17.6933 3.21587 17.8707 3.19691 18.0415 3.23187C18.2123 3.26683 18.368 3.35398 18.4871 3.48128C19.6224 4.69369 20.468 6.1478 20.9601 7.73419C21.0116 7.90101 21.0098 8.0797 20.9552 8.24549C20.9005 8.41128 20.7956 8.55596 20.6551 8.65947L19.2632 9.6868C19.0671 9.83055 18.9076 10.0185 18.7977 10.2353C18.6878 10.4522 18.6305 10.6919 18.6305 10.9351C18.6305 11.1782 18.6878 11.4179 18.7977 11.6348C18.9076 11.8517 19.0671 12.0396 19.2632 12.1834L20.6573 13.2096C20.7981 13.3132 20.9031 13.458 20.9578 13.6241C21.0125 13.7901 21.0141 13.969 20.9624 14.136C20.4703 15.7222 19.6252 17.1763 18.4905 18.3889C18.3716 18.5161 18.2161 18.6034 18.0456 18.6385C17.875 18.6737 17.6978 18.655 17.5383 18.5852L15.9614 17.8932C15.7389 17.7956 15.4965 17.7518 15.2539 17.7653C15.0113 17.7788 14.7753 17.8492 14.5649 17.9709C14.3546 18.0925 14.1759 18.262 14.0432 18.4655C13.9105 18.6691 13.8277 18.901 13.8013 19.1426L13.6106 20.854C13.5916 21.0262 13.5198 21.1883 13.4052 21.3182C13.2906 21.4481 13.1387 21.5394 12.9702 21.5797C11.3457 21.9662 9.65318 21.9662 8.02867 21.5797C7.85999 21.5396 7.70782 21.4484 7.59299 21.3185C7.47815 21.1886 7.40626 21.0264 7.38715 20.854L7.1976 19.1448C7.17007 18.904 7.08646 18.673 6.95348 18.4704C6.82051 18.2678 6.64187 18.0992 6.43192 17.9781C6.22196 17.8571 5.98655 17.7869 5.74458 17.7733C5.5026 17.7598 5.26081 17.8031 5.03863 17.8999L3.46173 18.5908C3.30208 18.6609 3.12459 18.6797 2.9538 18.6445C2.78301 18.6094 2.62737 18.522 2.50842 18.3945C1.37349 17.1805 0.528707 15.7248 0.0376471 14.1371C-0.0140603 13.9701 -0.0124677 13.7912 0.0422036 13.6252C0.0968749 13.4592 0.201909 13.3143 0.342708 13.2107L1.73679 12.1834C1.93289 12.0396 2.09236 11.8517 2.20229 11.6348C2.31221 11.4179 2.3695 11.1782 2.3695 10.9351C2.3695 10.6919 2.31221 10.4522 2.20229 10.2353C2.09236 10.0185 1.93289 9.83055 1.73679 9.6868L0.342708 8.66171C0.201909 8.55813 0.0968749 8.41326 0.0422036 8.24724C-0.0124677 8.08121 -0.0140603 7.90228 0.0376471 7.73531C0.529801 6.14892 1.37535 4.69481 2.51066 3.4824C2.62975 3.3551 2.78545 3.26795 2.95623 3.23299C3.12701 3.19803 3.30444 3.21699 3.46397 3.28726L5.03414 3.97701C5.25735 4.07376 5.50014 4.11682 5.74301 4.10272C5.98588 4.08861 6.22206 4.01774 6.43257 3.8958C6.64308 3.77386 6.82205 3.60424 6.95511 3.40058C7.08817 3.19691 7.17161 2.96488 7.19873 2.72312L7.38939 1.01164C7.40863 0.837072 7.48204 0.67291 7.5993 0.542172C7.71656 0.411434 7.8718 0.320677 8.04325 0.28263C8.85412 0.103421 9.68138 0.00870535 10.5118 0ZM10.5118 1.68232C10.003 1.6883 9.49543 1.73216 8.9932 1.81354L8.86983 2.90929C8.81373 3.41321 8.64002 3.8969 8.36272 4.32137C8.08541 4.74585 7.71227 5.09925 7.27335 5.35308C6.83444 5.60691 6.34203 5.75409 5.83581 5.78273C5.32959 5.81138 4.82372 5.72071 4.35897 5.51801L3.3507 5.07612C2.70966 5.85435 2.19943 6.73163 1.83997 7.67363L2.73385 8.33197C3.1424 8.63209 3.4746 9.02412 3.70361 9.47638C3.93261 9.92863 4.052 10.4284 4.05211 10.9354C4.05222 11.4423 3.93305 11.9421 3.70424 12.3945C3.47542 12.8469 3.14339 13.239 2.73497 13.5393L1.83885 14.1988C2.19775 15.1431 2.70917 16.0224 3.3507 16.803L4.3657 16.3578C4.82945 16.1553 5.33426 16.0645 5.83949 16.0928C6.34473 16.121 6.83627 16.2675 7.27456 16.5204C7.71285 16.7733 8.08563 17.1256 8.36291 17.5489C8.64018 17.9722 8.8142 18.4547 8.87095 18.9575L8.9932 20.0611C9.99138 20.2293 11.0109 20.2293 12.0079 20.0611L12.1313 18.9575C12.1871 18.454 12.3605 17.9707 12.6376 17.5466C12.9146 17.1225 13.2874 16.7695 13.726 16.516C14.1646 16.2626 14.6567 16.1158 15.1625 16.0875C15.6682 16.0592 16.1736 16.1503 16.6377 16.3533L17.6515 16.7974C18.2931 16.0185 18.8037 15.1405 19.1634 14.1977L18.2684 13.5382C17.8596 13.2382 17.5272 12.8462 17.2981 12.394C17.0689 11.9417 16.9495 11.4418 16.9494 10.9348C16.9493 10.4278 17.0685 9.92787 17.2975 9.4755C17.5264 9.02312 17.8586 8.631 18.2673 8.33085L19.1611 7.6725C18.8015 6.73004 18.2908 5.85237 17.6493 5.07388L16.6433 5.51465C16.1787 5.71804 15.6728 5.80933 15.1664 5.78114C14.66 5.75296 14.1673 5.60609 13.7282 5.3524C13.289 5.0987 12.9156 4.7453 12.6383 4.32071C12.3609 3.89612 12.1872 3.41225 12.1313 2.90817L12.009 1.81354C11.5143 1.73267 11.0131 1.68881 10.5118 1.68232ZM10.4983 6.72928C11.6138 6.72928 12.6835 7.17239 13.4723 7.96113C14.261 8.74988 14.7041 9.81964 14.7041 10.9351C14.7041 12.0505 14.261 13.1203 13.4723 13.909C12.6835 14.6978 11.6138 15.1409 10.4983 15.1409C9.38287 15.1409 8.31311 14.6978 7.52437 13.909C6.73563 13.1203 6.29252 12.0505 6.29252 10.9351C6.29252 9.81964 6.73563 8.74988 7.52437 7.96113C8.31311 7.17239 9.38287 6.72928 10.4983 6.72928ZM10.4983 8.4116C9.82905 8.4116 9.18719 8.67747 8.71395 9.15071C8.2407 9.62396 7.97484 10.2658 7.97484 10.9351C7.97484 11.6044 8.2407 12.2462 8.71395 12.7195C9.18719 13.1927 9.82905 13.4586 10.4983 13.4586C11.1676 13.4586 11.8094 13.1927 12.2827 12.7195C12.7559 12.2462 13.0218 11.6044 13.0218 10.9351C13.0218 10.2658 12.7559 9.62396 12.2827 9.15071C11.8094 8.67747 11.1676 8.4116 10.4983 8.4116Z" fill="#6A6F73"/>
</svg>
