<svg width="30" height="20" viewBox="0 0 30 20" fill="none" xmlns="http://www.w3.org/2000/svg">
<path d="M14.9247 13.1202C16.0918 12.1393 16.9289 10.8232 17.3225 9.35031C17.7162 7.87746 17.6473 6.31918 17.1253 4.88679C16.6032 3.45441 15.6533 2.21724 14.4043 1.34306C13.1553 0.468884 11.6676 0 10.143 0C8.6185 0 7.13084 0.468884 5.88182 1.34306C4.6328 2.21724 3.68286 3.45441 3.16083 4.88679C2.6388 6.31918 2.56993 7.87746 2.96358 9.35031C3.35722 10.8232 4.19432 12.1393 5.36136 13.1202C3.539 13.9443 1.95974 15.224 0.775912 16.836C0.55726 17.1339 0.465924 17.5065 0.521998 17.8718C0.578071 18.2371 0.776961 18.5652 1.07491 18.7838C1.37286 19.0025 1.74547 19.0938 2.11077 19.0378C2.47606 18.9817 2.80412 18.7828 3.02277 18.4848C3.84225 17.3656 4.91404 16.4554 6.15116 15.8279C7.38828 15.2004 8.7559 14.8734 10.143 14.8734C11.5302 14.8734 12.8978 15.2004 14.1349 15.8279C15.3721 16.4554 16.4438 17.3656 17.2633 18.4848C17.482 18.7829 17.8101 18.982 18.1755 19.0382C18.5409 19.0943 18.9137 19.0031 19.2118 18.7844C19.5099 18.5658 19.7089 18.2376 19.7651 17.8722C19.8213 17.5068 19.73 17.1341 19.5113 16.836C18.3268 15.2242 16.7472 13.9445 14.9247 13.1202ZM5.49838 7.4375C5.49838 6.51887 5.77078 5.62087 6.28115 4.85706C6.79151 4.09325 7.51691 3.49793 8.36561 3.14638C9.21431 2.79484 10.1482 2.70286 11.0492 2.88207C11.9502 3.06129 12.7778 3.50365 13.4273 4.15322C14.0769 4.80279 14.5193 5.63039 14.6985 6.53137C14.8777 7.43235 14.7857 8.36623 14.4342 9.21494C14.0826 10.0636 13.4873 10.789 12.7235 11.2994C11.9597 11.8098 11.0617 12.0822 10.143 12.0822C8.91121 12.0822 7.72982 11.5928 6.85877 10.7218C5.98773 9.85073 5.49838 8.66934 5.49838 7.4375ZM29.43 18.7786C29.2825 18.887 29.1151 18.9653 28.9373 19.0089C28.7596 19.0526 28.5749 19.0608 28.394 19.0331C28.213 19.0054 28.0393 18.9423 27.8828 18.8474C27.7262 18.7526 27.5899 18.6278 27.4816 18.4802C26.6601 17.3631 25.5879 16.4544 24.3512 15.8272C23.1145 15.2 21.7479 14.8718 20.3613 14.869C19.9918 14.869 19.6374 14.7222 19.376 14.4608C19.1147 14.1995 18.9679 13.8451 18.9679 13.4756C18.9679 13.106 19.1147 12.7516 19.376 12.4903C19.6374 12.229 19.9918 12.0822 20.3613 12.0822C21.0452 12.0814 21.7205 11.9296 22.3389 11.6376C22.9573 11.3456 23.5036 10.9206 23.9388 10.3931C24.374 9.86554 24.6873 9.2484 24.8564 8.58574C25.0254 7.92308 25.0461 7.23127 24.9168 6.55971C24.7876 5.88815 24.5116 5.25342 24.1087 4.70085C23.7058 4.14828 23.1858 3.69151 22.5858 3.36317C21.9859 3.03483 21.3209 2.84301 20.6383 2.80143C19.9557 2.75984 19.2723 2.86951 18.637 3.1226C18.4668 3.19228 18.2845 3.22759 18.1006 3.22648C17.9167 3.22538 17.7348 3.18788 17.5655 3.11615C17.3962 3.04442 17.2427 2.93988 17.114 2.80856C16.9852 2.67724 16.8838 2.52173 16.8154 2.35101C16.7471 2.18028 16.7132 1.99771 16.7157 1.81383C16.7183 1.62995 16.7572 1.44838 16.8302 1.27962C16.9033 1.11085 17.009 0.958206 17.1413 0.830497C17.2737 0.702788 17.43 0.602536 17.6012 0.53552C19.2412 -0.121068 21.0613 -0.172012 22.7354 0.391824C24.4095 0.95566 25.828 2.0974 26.7366 3.61232C27.6452 5.12725 27.9844 6.91628 27.6934 8.65865C27.4024 10.401 26.5003 11.9827 25.1488 13.1202C26.9712 13.9443 28.5504 15.224 29.7343 16.836C29.9507 17.1342 30.0403 17.506 29.9833 17.8701C29.9262 18.2342 29.7273 18.5609 29.43 18.7786Z" fill="#6A6F73"/>
</svg>
