<svg width="21" height="21" viewBox="0 0 21 21" fill="none" xmlns="http://www.w3.org/2000/svg">
<path d="M9.29775 0.441134C9.62267 0.157845 10.0529 0 10.5 0C10.9471 0 11.3773 0.157845 11.7023 0.441134L20.1793 7.83096C20.7043 8.28768 21 8.92516 21 9.59006V18.5792C21 19.2213 20.7234 19.837 20.2312 20.291C19.7389 20.745 19.0712 21 18.375 21H14.875C14.5301 21 14.1886 20.9373 13.8701 20.8156C13.5515 20.6938 13.262 20.5154 13.0182 20.2904C12.7744 20.0654 12.5811 19.7984 12.4493 19.5045C12.3175 19.2106 12.2498 18.8956 12.25 18.5776V14.543C12.25 14.329 12.1578 14.1237 11.9937 13.9724C11.8296 13.8211 11.6071 13.7361 11.375 13.7361H9.625C9.39294 13.7361 9.17038 13.8211 9.00628 13.9724C8.84219 14.1237 8.75 14.329 8.75 14.543V18.5776C8.75 19.2196 8.47344 19.8354 7.98116 20.2894C7.48887 20.7433 6.82119 20.9984 6.125 20.9984H2.625C1.92881 20.9984 1.26113 20.7433 0.768845 20.2894C0.276562 19.8354 0 19.2196 0 18.5776V9.58845C0 8.92354 0.2975 8.28607 0.8225 7.82935L9.29775 0.437907V0.441134ZM10.5 1.61279L2.023 9.00423C1.93694 9.07947 1.86837 9.17006 1.82144 9.27048C1.77451 9.37091 1.7502 9.47909 1.75 9.58845V18.5776C1.75 18.7916 1.84219 18.9969 2.00628 19.1482C2.17038 19.2995 2.39294 19.3845 2.625 19.3845H6.125C6.35706 19.3845 6.57962 19.2995 6.74372 19.1482C6.90781 18.9969 7 18.7916 7 18.5776V14.543C7 13.9009 7.27656 13.2852 7.76884 12.8312C8.26113 12.3772 8.92881 12.1222 9.625 12.1222H11.375C12.0712 12.1222 12.7389 12.3772 13.2312 12.8312C13.7234 13.2852 14 13.9009 14 14.543V18.5776C14 18.7916 14.0922 18.9969 14.2563 19.1482C14.4204 19.2995 14.6429 19.3845 14.875 19.3845H18.375C18.6071 19.3845 18.8296 19.2995 18.9937 19.1482C19.1578 18.9969 19.25 18.7916 19.25 18.5776V9.58845C19.25 9.47882 19.2258 9.37033 19.1789 9.26961C19.132 9.16889 19.0633 9.07804 18.977 9.00262L10.5 1.61279Z" fill="#6A6F73"/>
</svg>
