<svg width="31" height="31" viewBox="0 0 31 31" fill="none" xmlns="http://www.w3.org/2000/svg">
<path fill-rule="evenodd" clip-rule="evenodd" d="M6.73913 1.34783H24.2609C27.2384 1.34783 29.6522 3.7616 29.6522 6.73913V24.2609C29.6522 27.2384 27.2384 29.6522 24.2609 29.6522H6.73913C3.76159 29.6522 1.34783 27.2384 1.34783 24.2609V6.73913C1.34783 3.7616 3.76159 1.34783 6.73913 1.34783ZM24.2609 0C27.9828 0 31 3.01721 31 6.73913V24.2609C31 27.9828 27.9828 31 24.2609 31H6.73913C3.01721 31 0 27.9828 0 24.2609V6.73913C0 3.01721 3.01721 0 6.73913 0H24.2609Z" fill="#6A6F73"/>
<path fill-rule="evenodd" clip-rule="evenodd" d="M23 15.7281C23 15.2556 22.617 14.8726 22.1445 14.8726H9.31202C8.83954 14.8726 8.45652 15.2556 8.45652 15.7281C8.45652 16.2005 8.83954 16.5836 9.31202 16.5836H22.1445C22.617 16.5836 23 16.2005 23 15.7281Z" fill="#6A6F73" stroke="#6A6F73" stroke-linecap="round"/>
<path fill-rule="evenodd" clip-rule="evenodd" d="M15.727 23C16.1995 23 16.5825 22.617 16.5825 22.1445L16.5825 9.31202C16.5825 8.83954 16.1995 8.45652 15.727 8.45652C15.2545 8.45652 14.8715 8.83954 14.8715 9.31202L14.8715 22.1445C14.8715 22.617 15.2545 23 15.727 23Z" fill="#6A6F73" stroke="#6A6F73" stroke-linecap="round"/>
</svg>
