<svg width="262" height="52" viewBox="0 0 262 52" fill="none" xmlns="http://www.w3.org/2000/svg">
<path d="M73.2678 10.2226H70.3054C68.7477 10.2226 67.5516 10.612 66.7171 11.3908C65.9104 12.1697 65.5071 13.4492 65.5071 15.2294H64.2554V11.6829C64.2554 9.45761 65.4376 8.34497 67.8019 8.34497H87.4122V10.2226H78.6919V35.8828H73.2678V10.2226Z" fill="#303030"/>
<path d="M95.7123 36.3C93.793 36.3 92.1102 35.855 90.6637 34.9649C89.2173 34.0748 88.0907 32.8648 87.2841 31.3349C86.5052 29.7772 86.1158 28.0248 86.1158 26.0777C86.1158 23.908 86.5052 22.0583 87.2841 20.5284C88.0907 18.9985 89.1895 17.8441 90.5803 17.0653C91.9711 16.2586 93.5427 15.8553 95.2951 15.8553C97.0197 15.8553 98.5774 16.203 99.9682 16.8984C101.359 17.5938 102.458 18.5813 103.264 19.8608C104.071 21.1125 104.474 22.5589 104.474 24.2001C104.474 24.7286 104.447 25.3266 104.391 25.9942L104.307 26.8287H91.7486C91.7486 29.4712 92.1519 31.4044 92.9585 32.6283C93.7652 33.8244 94.8918 34.4225 96.3382 34.4225C97.6734 34.4225 98.786 34.1304 99.6761 33.5463C100.594 32.9343 101.47 32.072 102.305 30.9594L103.598 31.919C102.792 33.1707 101.776 34.2138 100.552 35.0483C99.3562 35.8828 97.7429 36.3 95.7123 36.3ZM98.8416 24.9511C98.8416 22.3364 98.5357 20.4867 97.9237 19.4018C97.3118 18.2892 96.4355 17.7329 95.2951 17.7329C94.2381 17.7329 93.3758 18.3031 92.7082 19.4436C92.0684 20.5562 91.7486 22.392 91.7486 24.9511H98.8416Z" fill="#303030"/>
<path d="M114.104 36.3C111.851 36.3 110.098 35.7994 108.847 34.798C107.623 33.7688 107.011 32.3919 107.011 30.6673C107.011 29.2765 107.331 28.1221 107.97 27.2042C108.638 26.2863 109.792 25.5909 111.433 25.118C113.075 24.6451 115.356 24.4087 118.276 24.4087H118.902C118.902 21.9887 118.568 20.278 117.901 19.2767C117.233 18.2475 116.246 17.7329 114.938 17.7329C113.853 17.7329 112.963 17.9971 112.268 18.5256C111.573 19.0541 111.072 20.0416 110.766 21.488H108.471C108.471 20.5423 108.527 19.7356 108.638 19.068C108.777 18.4005 109.069 17.8163 109.514 17.3156C110.376 16.3421 112.463 15.8553 115.773 15.8553C118.554 15.8553 120.668 16.5924 122.115 18.0667C123.589 19.5131 124.326 21.6967 124.326 24.6173V35.8828H120.78L119.319 34.0052H119.111C118.86 34.3947 118.471 34.7841 117.942 35.1735C116.997 35.9245 115.717 36.3 114.104 36.3ZM115.356 34.2139C115.94 34.2139 116.44 34.1026 116.858 33.8801C117.275 33.6297 117.678 33.2959 118.068 32.8787C118.429 32.4893 118.707 32.0303 118.902 31.5018V26.2863H118.276C116.301 26.2863 114.869 26.6479 113.979 27.3711C113.089 28.0665 112.643 29.1652 112.643 30.6673C112.643 31.8078 112.88 32.684 113.353 33.2959C113.826 33.9079 114.493 34.2139 115.356 34.2139Z" fill="#303030"/>
<path d="M138.016 36.3C135.874 36.3 134.052 35.8411 132.55 34.9232C131.048 34.0052 129.907 32.7813 129.128 31.2514C128.377 29.6938 128.002 27.9692 128.002 26.0777C128.002 24.1862 128.377 22.4755 129.128 20.9456C129.907 19.3879 131.048 18.1501 132.55 17.2322C134.052 16.3143 135.874 15.8553 138.016 15.8553C141.353 15.8553 143.509 16.3421 144.483 17.3156C144.956 17.7885 145.248 18.4144 145.359 19.1932C145.47 19.9721 145.526 21.2933 145.526 23.157H144.274C144.163 21.4046 143.62 20.0694 142.647 19.1515C141.673 18.2057 140.338 17.7329 138.641 17.7329C137.112 17.7329 135.888 18.4422 134.97 19.8608C134.08 21.2516 133.635 23.3239 133.635 26.0777C133.635 31.6409 135.373 34.4225 138.85 34.4225C140.185 34.4225 141.298 34.1304 142.188 33.5463C143.106 32.9343 143.982 32.072 144.817 30.9594L146.11 31.919C145.303 33.1707 144.288 34.2138 143.064 35.0483C141.84 35.8828 140.157 36.3 138.016 36.3Z" fill="#303030"/>
<path d="M149.702 13.7691C149.702 12.3505 149.507 11.3074 149.118 10.6398C148.729 9.94439 147.95 9.59669 146.782 9.59669H146.364V8.34497H151.371C152.373 8.34497 153.137 8.51187 153.666 8.84566C154.194 9.17945 154.57 9.73577 154.793 10.5146C155.015 11.2657 155.126 12.3505 155.126 13.7691V17.4408C155.377 17.2461 155.808 16.9818 156.42 16.648C157.532 16.1195 158.631 15.8553 159.716 15.8553C161.969 15.8553 163.847 16.4394 165.349 17.6077C166.879 18.7482 167.644 20.7092 167.644 23.4908V35.8828H162.219V23.6994C162.219 21.6966 161.858 20.2363 161.135 19.3184C160.439 18.4005 159.549 17.9415 158.464 17.9415C157.713 17.9415 156.92 18.1918 156.086 18.6925C155.752 18.8872 155.432 19.1237 155.126 19.4018V35.8828H149.702V13.7691Z" fill="#303030"/>
<path d="M180.701 44.2276C177.53 44.2276 175.026 43.713 173.191 42.6838C171.382 41.6824 170.478 40.0413 170.478 37.7604C170.478 36.3696 171.035 35.2152 172.147 34.2973C173.26 33.3794 174.581 32.7257 176.111 32.3363C174.859 31.9468 174.234 31.1819 174.234 30.0415C174.234 29.0957 174.79 28.4003 175.903 27.9552C174.706 27.538 173.705 26.8148 172.898 25.7856C172.12 24.7564 171.73 23.616 171.73 22.3642C171.73 20.0833 172.537 18.4283 174.15 17.3991C175.791 16.3699 177.975 15.8553 180.701 15.8553H189.463V16.9818L185.708 17.4825C186.876 17.9276 187.822 18.6091 188.545 19.527C189.296 20.4449 189.672 21.3907 189.672 22.3642C189.672 24.6451 188.893 26.2863 187.335 27.2877C185.805 28.289 183.594 28.7897 180.701 28.7897C179.254 28.7897 178.197 28.8732 177.53 29.0401C176.862 29.1792 176.528 29.5129 176.528 30.0415C176.528 30.4865 176.862 30.7786 177.53 30.9177C178.197 31.0567 179.254 31.1402 180.701 31.168C183.705 31.2236 186.153 31.8217 188.044 32.9621C189.964 34.0748 190.923 35.6742 190.923 37.7604C190.923 40.0413 190.005 41.6824 188.169 42.6838C186.361 43.713 183.872 44.2276 180.701 44.2276ZM180.701 27.1208C182.926 27.1208 184.039 25.5353 184.039 22.3642C184.039 20.8065 183.733 19.6105 183.121 18.776C182.509 17.9415 181.702 17.5243 180.701 17.5243C179.672 17.5243 178.851 17.9276 178.239 18.7342C177.655 19.5409 177.363 20.7509 177.363 22.3642C177.363 25.5353 178.476 27.1208 180.701 27.1208ZM180.701 42.35C182.147 42.35 183.274 41.9606 184.08 41.1818C184.887 40.4307 185.29 39.2903 185.29 37.7604C185.29 36.5365 184.901 35.5212 184.122 34.7145C183.371 33.8801 182.342 33.3376 181.035 33.0873L179.074 32.8787C178.1 33.2959 177.363 33.894 176.862 34.6728C176.362 35.4517 176.111 36.4809 176.111 37.7604C176.111 39.2903 176.515 40.4307 177.321 41.1818C178.128 41.9606 179.254 42.35 180.701 42.35Z" fill="#303030"/>
<path d="M207.631 16.6898C208.132 17.0514 208.493 17.4547 208.716 17.8998C208.938 18.317 209.05 18.5395 209.05 18.5674L206.922 20.1946C206.727 19.9442 206.477 19.68 206.171 19.4018C205.559 18.8455 204.849 18.5674 204.043 18.5674C202.429 18.5674 201.192 18.9985 200.329 19.8608L200.413 20.4867C200.468 20.9873 200.496 21.4463 200.496 21.8635V35.8828H195.072V21.6967C195.072 20.278 194.877 19.2349 194.488 18.5674C194.126 17.872 193.361 17.5243 192.193 17.5243H191.776V16.2725H195.907C196.852 16.2725 197.59 16.3977 198.118 16.648C198.674 16.8706 199.105 17.26 199.411 17.8163C200.914 16.509 202.666 15.8553 204.669 15.8553C205.865 15.8553 206.852 16.1335 207.631 16.6898Z" fill="#303030"/>
<path d="M217.477 36.3C215.224 36.3 213.471 35.7994 212.219 34.798C210.996 33.7688 210.384 32.3919 210.384 30.6673C210.384 29.2765 210.703 28.1221 211.343 27.2042C212.011 26.2863 213.165 25.5909 214.806 25.118C216.447 24.6451 218.728 24.4087 221.649 24.4087H222.275C222.275 21.9887 221.941 20.278 221.274 19.2767C220.606 18.2475 219.618 17.7329 218.311 17.7329C217.226 17.7329 216.336 17.9971 215.641 18.5256C214.945 19.0541 214.445 20.0416 214.139 21.488H211.844C211.844 20.5423 211.9 19.7356 212.011 19.068C212.15 18.4005 212.442 17.8163 212.887 17.3156C213.749 16.3421 215.835 15.8553 219.146 15.8553C221.927 15.8553 224.041 16.5924 225.488 18.0667C226.962 19.5131 227.699 21.6967 227.699 24.6173V35.8828H224.152L222.692 34.0052H222.484C222.233 34.3947 221.844 34.7841 221.315 35.1735C220.37 35.9245 219.09 36.3 217.477 36.3ZM218.728 34.2139C219.312 34.2139 219.813 34.1026 220.23 33.8801C220.648 33.6297 221.051 33.2959 221.44 32.8787C221.802 32.4893 222.08 32.0303 222.275 31.5018V26.2863H221.649C219.674 26.2863 218.242 26.6479 217.351 27.3711C216.461 28.0665 216.016 29.1652 216.016 30.6673C216.016 31.8078 216.253 32.684 216.726 33.2959C217.198 33.9079 217.866 34.2139 218.728 34.2139Z" fill="#303030"/>
<path d="M233.21 21.6967C233.21 20.278 233.016 19.2349 232.626 18.5674C232.265 17.872 231.5 17.5243 230.332 17.5243H229.914V16.2725H234.045C235.853 16.2725 237.035 16.801 237.592 17.858H237.758C239.288 16.5229 241.041 15.8553 243.016 15.8553C244.379 15.8553 245.561 16.1195 246.562 16.648C247.591 17.1487 248.328 17.6772 248.774 18.2336C249.441 17.5103 250.234 16.9401 251.152 16.5229C252.07 16.0778 253.252 15.8553 254.698 15.8553C259.566 15.8553 262 18.4144 262 23.5325V35.8828H256.576V23.4908C256.576 21.5715 256.27 20.1668 255.658 19.2767C255.046 18.3865 254.239 17.9415 253.238 17.9415C252.487 17.9415 251.792 18.0945 251.152 18.4005C250.512 18.6786 250.011 19.0541 249.65 19.527C249.705 19.6383 249.817 19.9442 249.984 20.4449C250.206 21.2794 250.317 22.3086 250.317 23.5325V35.8828H244.893V23.4908C244.893 21.5715 244.587 20.1668 243.975 19.2767C243.363 18.3865 242.557 17.9415 241.555 17.9415C240.971 17.9415 240.359 18.1223 239.719 18.4839C239.107 18.8177 238.649 19.1932 238.343 19.6105L238.468 20.1946C238.579 20.5284 238.635 21.0708 238.635 21.8218V35.8828H233.21V21.6967Z" fill="#303030"/>
<circle cx="25.8689" cy="25.8689" r="25.8689" transform="rotate(90 25.8689 25.8689)" fill="url(#paint0_linear_561_43)"/>
<path fill-rule="evenodd" clip-rule="evenodd" d="M20.7232 25.3795C20.7232 28.4012 18.2736 30.8509 15.2518 30.8509C12.2301 30.8509 9.78046 28.4012 9.78046 25.3795C9.78046 22.3578 12.2301 19.9081 15.2518 19.9081C18.2736 19.9081 20.7232 22.3578 20.7232 25.3795ZM23.6872 27.4754C23.8866 26.6701 24.5602 26.0232 25.3899 26.0232C26.2196 26.0232 26.8932 26.6701 27.0927 27.4754C28.0304 31.2622 31.4514 34.0693 35.528 34.0693C37.6019 34.0693 39.5061 33.3428 41.0001 32.1304V34.0695C41.0001 34.9583 41.7205 35.6787 42.6093 35.6787C43.498 35.6787 44.2185 34.9583 44.2185 34.0695V26.0234C44.2185 25.9566 44.2144 25.8908 44.2065 25.8262C44.214 25.6783 44.2178 25.5293 44.2178 25.3795C44.2178 20.5803 40.3273 16.6897 35.528 16.6897C32.6018 16.6897 30.0134 18.1361 28.4388 20.3529C27.717 21.3689 26.6362 22.1611 25.3899 22.1611C24.1437 22.1611 23.0628 21.3689 22.3411 20.3529C20.7664 18.1361 18.178 16.6897 15.2518 16.6897C10.4526 16.6897 6.56201 20.5803 6.56201 25.3795C6.56201 30.1787 10.4526 34.0693 15.2518 34.0693C19.3284 34.0693 22.7494 31.2622 23.6872 27.4754ZM40.9994 25.3795C40.9994 28.4012 38.5498 30.8509 35.528 30.8509C32.5063 30.8509 30.0567 28.4012 30.0567 25.3795C30.0567 22.3578 32.5063 19.9081 35.528 19.9081C38.5498 19.9081 40.9994 22.3578 40.9994 25.3795Z" fill="white"/>
<mask id="path-4-inside-1_561_43" fill="white">
<path d="M6.83074 23.2352C7.33244 21.2649 8.50909 19.533 10.1559 18.3407L12.1065 21.0349C11.09 21.7708 10.3637 22.8399 10.0541 24.056L6.83074 23.2352Z"/>
</mask>
<path d="M6.83074 23.2352C7.33244 21.2649 8.50909 19.533 10.1559 18.3407L12.1065 21.0349C11.09 21.7708 10.3637 22.8399 10.0541 24.056L6.83074 23.2352Z" stroke="#EE5A8F" stroke-width="20" mask="url(#path-4-inside-1_561_43)"/>
<defs>
<linearGradient id="paint0_linear_561_43" x1="25.8689" y1="-1.91978e-06" x2="26.2862" y2="63.4205" gradientUnits="userSpaceOnUse">
<stop stop-color="#EE5A8F"/>
<stop offset="1" stop-color="#FFB629"/>
</linearGradient>
</defs>
</svg>
