<svg width="299" height="298" viewBox="0 0 299 298" fill="none" xmlns="http://www.w3.org/2000/svg">
<path d="M0 96.9953C0 43.4476 43.5299 0.0385742 97.2268 0.0385742H149.865V149.488H0V96.9953Z" fill="#F37671" fill-opacity="0.1"/>
<path fill-rule="evenodd" clip-rule="evenodd" d="M148.627 1.27369H97.2268C44.214 1.27369 1.23856 44.1297 1.23856 96.9953V148.253H148.627V1.27369ZM97.2268 0.0385742C43.5299 0.0385742 0 43.4476 0 96.9953V149.488H149.865V0.0385742H97.2268Z" fill="#F37671"/>
<path d="M201.661 148.481C255.358 148.481 298.888 191.89 298.888 245.437L298.888 297.93L149.023 297.93L149.023 148.481L201.661 148.481Z" fill="#F37671" fill-opacity="0.1"/>
<path fill-rule="evenodd" clip-rule="evenodd" d="M297.65 296.695L297.65 245.437C297.65 192.572 254.674 149.716 201.661 149.716L150.261 149.716L150.261 296.695L297.65 296.695ZM298.888 245.437C298.888 191.89 255.358 148.481 201.661 148.481L149.023 148.481L149.023 297.93L298.888 297.93L298.888 245.437Z" fill="#F37671"/>
</svg>
