<svg width="97" height="97" viewBox="0 0 97 97" fill="none" xmlns="http://www.w3.org/2000/svg">
<circle cx="48.8689" cy="48.1311" r="48.1311" transform="rotate(90 48.8689 48.1311)" fill="url(#paint0_linear_561_390)"/>
<path fill-rule="evenodd" clip-rule="evenodd" d="M39.2952 47.2198C39.2952 52.842 34.7375 57.3997 29.1153 57.3997C23.4931 57.3997 18.9354 52.842 18.9354 47.2198C18.9354 41.5976 23.4931 37.0399 29.1153 37.0399C34.7375 37.0399 39.2952 41.5976 39.2952 47.2198ZM44.81 51.1195C45.1811 49.6211 46.4344 48.4175 47.9781 48.4175C49.5218 48.4175 50.7751 49.6211 51.1462 51.1195C52.891 58.165 59.256 63.3879 66.8408 63.3879C70.6995 63.3879 74.2425 62.0362 77.022 59.7804V63.3883C77.022 65.0419 78.3625 66.3824 80.0161 66.3824C81.6697 66.3824 83.0102 65.0419 83.0102 63.3883V48.4179C83.0102 48.2937 83.0026 48.1713 82.9879 48.0511C83.0019 47.7757 83.0089 47.4986 83.0089 47.2198C83.0089 38.2905 75.7702 31.0518 66.8408 31.0518C61.3964 31.0518 56.5805 33.7428 53.6507 37.8674C52.3079 39.7578 50.2968 41.2317 47.9781 41.2317C45.6593 41.2317 43.6483 39.7578 42.3055 37.8674C39.3757 33.7428 34.5598 31.0518 29.1153 31.0518C20.186 31.0518 12.9473 38.2905 12.9473 47.2198C12.9473 56.1492 20.186 63.3879 29.1153 63.3879C36.7002 63.3879 43.0652 58.165 44.81 51.1195ZM77.0207 47.2198C77.0207 52.842 72.463 57.3997 66.8408 57.3997C61.2186 57.3997 56.6609 52.842 56.6609 47.2198C56.6609 41.5976 61.2186 37.0399 66.8408 37.0399C72.463 37.0399 77.0207 41.5976 77.0207 47.2198Z" fill="white"/>
<mask id="path-3-inside-1_561_390" fill="white">
<path d="M13.4473 43.2304C14.3807 39.5646 16.57 36.3421 19.634 34.1238L23.2632 39.1367C21.372 40.5059 20.0207 42.4949 19.4445 44.7575L13.4473 43.2304Z"/>
</mask>
<path d="M13.4473 43.2304C14.3807 39.5646 16.57 36.3421 19.634 34.1238L23.2632 39.1367C21.372 40.5059 20.0207 42.4949 19.4445 44.7575L13.4473 43.2304Z" stroke="#EE5A8F" stroke-width="20" mask="url(#path-3-inside-1_561_390)"/>
<defs>
<linearGradient id="paint0_linear_561_390" x1="48.8689" y1="-3.83783e-06" x2="49.6452" y2="117.999" gradientUnits="userSpaceOnUse">
<stop stop-color="#EE5A8F"/>
<stop offset="1" stop-color="#FFB629"/>
</linearGradient>
</defs>
</svg>
